<?xml version="1.0" encoding="utf-8"?>
<!-- Generator: Adobe Illustrator 26.5.0, SVG Export Plug-In . SVG Version: 6.00 Build 0)  -->
<svg version="1.1" xmlns="http://www.w3.org/2000/svg" xmlns:xlink="http://www.w3.org/1999/xlink" x="0px" y="0px"
	 viewBox="0 0 4480 2520" style="enable-background:new 0 0 4480 2520;" xml:space="preserve">
<style type="text/css">
	.st0{fill:#ED1C24;stroke:#000000;stroke-miterlimit:10;}
	.st1{fill:#E6E7E8;}
	.st2{fill:#00A651;}
</style>
<g id="Layer_1">
	<rect class="st0" width="4480" height="2520"/>
</g>
<g id="Layer_2">
	<rect x="2570.35" y="-375.93" class="st1" width="828.24" height="108.53"/>
	<rect x="1134.46" y="1576.39" class="st2" width="828.24" height="108.53"/>
	<g>
		<polygon class="st2" points="2467.97,309.77 2194.3,309.77 2000.78,503.29 2000.78,776.96 2194.3,970.47 2467.97,970.47 
			2661.49,776.96 2661.49,503.29 		"/>
		<rect x="812.97" y="1101.99" class="st2" width="334.3" height="108.53"/>
		
			<rect x="1480.98" y="716.48" transform="matrix(6.123234e-17 -1 1 6.123234e-17 868.9679 2410.4648)" class="st2" width="317.48" height="108.53"/>
		
			<rect x="674.69" y="1134.01" transform="matrix(-1.715125e-15 -1 1 -1.715125e-15 -16.9483 2359.6096)" class="st2" width="993.28" height="108.53"/>
		
			<rect x="1917.01" y="1789.19" transform="matrix(-1.836970e-16 1 -1 -1.836970e-16 4174.5918 -487.6791)" class="st2" width="828.24" height="108.53"/>
		<rect x="1225.59" y="585.86" class="st2" width="828.24" height="108.53"/>
		
			<rect x="1917.01" y="1156.95" transform="matrix(6.123234e-17 -1 1 6.123234e-17 1119.9167 3542.3542)" class="st2" width="828.24" height="108.53"/>
		<rect x="1917.01" y="1576.39" class="st2" width="828.24" height="108.53"/>
		<rect x="2779.96" y="2149.05" class="st2" width="431.47" height="108.53"/>
		
			<rect x="3175.49" y="1783.45" transform="matrix(4.502125e-15 -1 1 4.502125e-15 1544.8351 5220.2627)" class="st2" width="414.12" height="108.53"/>
		<rect x="2661.49" y="1576.39" class="st2" width="828.24" height="108.53"/>
		
			<rect x="3188" y="1305.54" transform="matrix(6.123234e-17 -1 1 6.123234e-17 2153.3196 4872.9209)" class="st2" width="650.23" height="108.53"/>
		
			<rect x="3366.43" y="439.17" transform="matrix(6.123234e-17 -1 1 6.123234e-17 3019.6885 4006.552)" class="st2" width="293.38" height="108.53"/>
		<rect x="2632.32" y="585.86" class="st2" width="503.55" height="108.53"/>
		<rect x="3135.87" y="474.63" class="st2" width="554.18" height="658.35"/>
		<path class="st2" d="M3623.95,395.46h-412.51c0,0,103.18-122.58,103.18-172.92S3211.43,49.62,3211.43,49.62h412.51V395.46z"/>
		<rect x="3567.38" y="1519.88" class="st2" width="434.26" height="165.03"/>
		<polygon class="st2" points="3625.22,2132.85 3625.22,2330.57 3485.41,2470.38 3287.69,2470.38 3147.88,2330.57 3147.88,2132.85 
			3149.14,2131.59 3149.14,2044.77 3623.95,2044.77 3623.95,2131.58 		"/>
		<polygon class="st2" points="815.89,1394.93 618.17,1394.93 478.36,1255.12 478.36,1057.4 618.17,917.59 815.89,917.59 
			817.15,918.85 903.97,918.85 903.97,1393.66 817.16,1393.66 		"/>
		<rect x="2120.71" y="1894.56" class="st2" width="659.26" height="575.83"/>
		<rect x="691.16" y="79.79" class="st2" width="534.43" height="614.6"/>
		<rect x="1319.06" y="929.49" class="st2" width="698.58" height="453.54"/>
		<rect x="769.36" y="1576.39" class="st2" width="456.24" height="893.99"/>
		<rect x="1225.59" y="2149.05" class="st2" width="578.27" height="321.33"/>
	</g>
</g>
</svg>
