<?xml version="1.0" encoding="utf-8"?>
<!-- Generator: Adobe Illustrator 26.5.0, SVG Export Plug-In . SVG Version: 6.00 Build 0)  -->
<svg version="1.1" id="Layer_1" xmlns="http://www.w3.org/2000/svg" xmlns:xlink="http://www.w3.org/1999/xlink" x="0px" y="0px"
	 viewBox="0 0 300 300" style="enable-background:new 0 0 300 300;" xml:space="preserve">
<style type="text/css">
	.st0{fill:#FDDABF;}
	.st1{fill:#FBF0E5;}
	.st2{fill:#FBF1E7;}
	.st3{fill:#584B45;}
	.st4{fill:#594943;}
	.st5{fill:#74635E;}
	.st6{fill:#FADBC2;}
	.st7{fill:#E9AB54;}
	.st8{fill:#746B65;}
	.st9{fill:#7D736D;}
	.st10{fill:#645852;}
	.st11{fill:#FEEEDD;}
	.st12{fill:#F0C4A6;}
	.st13{fill:#40312B;}
	.st14{fill:#C79B6C;}
</style>
<g id="_x31_RS29m_00000024718257302219752410000006155415700329581218_">
	<g>
		<path class="st0" d="M207.13,241.77c-4.68,3.78-10.81,5.8-13.93,11.47c-10.77,3.06-21.55,6.12-32.32,9.18
			c-7.71,0.01-15.42,0.02-23.13,0.03c-11.8-3.14-23.66-6.12-34.79-11.32c-5.14-0.24-5.89-7.46-11.38-7.14
			c-15.78-20.43-17.91-42.32-7.17-65.68c10.16-22.12,25.31-39.07,48.69-47.65c10.81-2,21.62-3.92,32.42,0.08
			c14.3,3.96,23.93,14.41,32.91,25.06c16.19,19.19,25.13,40.91,17.73,66.43C214.17,229.04,210.19,235.27,207.13,241.77z"/>
		<path class="st1" d="M133.09,130.67c-23.38,8.59-38.53,25.54-48.69,47.65c-10.73,23.36-8.61,45.25,7.17,65.68
			c-7.6,1.35-9.1-5.97-13.05-9.52c-16.77-15.04-24.94-33.99-24.3-56.6c20-5.17,22.54-8.44,20.61-28.71
			c-0.73-7.64,0.67-14.22,4.96-20.63c13.75-20.51,11.25-28.42-11.54-38c3.5-11.19,7.8-22,14.99-31.42c3-3.93,6.95-8.48-1.91-9.19
			c-15.73-1.25-18.7-15.52-25.98-25.04c-3.02-3.95,1.84-7.7,5.89-9.3C68.5,12.73,86,19.25,91.49,26.51
			c-3.21-1.13-6.35-2.52-9.63-3.33c-5.83-1.44-13.36-3.89-16.85,1.32c-3,4.49,3.62,9.09,6.46,13.34c4.56,6.82,11.43,9.06,19.02,7
			c6.27-1.7,10.49-6.06,10.16-13.33c1.09-2.15,3.09-2.58,5.23-2.74c12.34-1.13,14.55-3.79,11.49-13.8c2.26,0.08,4.51,0.16,6.77,0.23
			c-1.54,7.39-0.16,12.4,8.76,13.55c7.82,1.01,15.46,3.34,23.18,5.09c-0.12,6.49,0.3,12.85,4.03,18.5c0.74,2.16,1.49,4.31,2.23,6.47
			c-8.92-3.09-18.36-0.27-27.36-2.43c0.22-5.23-1.46-8.98-7.38-9.36c-4.7-0.3-3.77,3.92-4.88,6.34c-2.62,5.74,1.22,7.25,5.72,8.16
			c-7.01,7.07-17.43,11.34-18.93,22.95c-2.98,1.68-3.89,4.33-4.24,7.64c-1.71,16.43,8.36,28.05,27.81,31.79
			C134.54,126.15,134.54,128.4,133.09,130.67z"/>
		<path class="st2" d="M207.13,241.77c3.06-6.5,7.04-12.73,9.02-19.55c7.4-25.52-1.54-47.24-17.73-66.43
			c-8.98-10.65-18.61-21.09-32.91-25.06c0-2.3,0-4.61,0.01-6.91c20.42-6.27,30.26-16.14,23.39-37.04c-0.84-0.8-1.68-1.6-2.53-2.4
			c0,0,0.06,0.03,0.06,0.03c-0.76-3.94-1.52-7.89-2.28-11.83c11.28,0.13,21.76-3.71,32.43-6.59c6.29,10.73,13.65,20.96,16.03,33.56
			c-8.35,11.96-15.13,24.75-16.84,39.38c-1.07,9.14,0.65,17.77,12.14,19.78c2.15,1.56,4.54,1.87,7.09,1.31
			c2.24,0.43,4.47,0.87,6.71,1.3c2.1,2.02,4.39,2.36,4.33-1.13c-0.09-5.21-1.15-10.41-1.8-15.61c-0.79-6.93-1.58-13.86-2.38-20.79
			c5.31-0.83,7.58,2.62,9.16,6.74c4.73,12.28,9.36,24.59,14.02,36.89c-4.38,4.36-13.72,0.46-15.45,9.25
			c-5.34,0.48-4.9,4.42-5.53,8.32c-3.26,20.17-13.32,36.86-27.13,51.57C214.2,239.52,211.17,241.49,207.13,241.77z"/>
		<path class="st3" d="M68.26,90.54c22.79,9.58,25.29,17.48,11.54,38c-4.29,6.41-5.69,12.99-4.96,20.63
			c1.93,20.28-0.61,23.54-20.61,28.71c0,0,0.15-0.82,0.15-0.82c-1.46-9.99,2.72-20.44-2.39-30.14c-1.37-8.65,4.25-16.72,2.14-25.43
			C60.34,111.86,59.9,99.19,68.26,90.54z"/>
		<path class="st4" d="M216.59,66.01c-10.67,2.88-21.15,6.71-32.43,6.59c0,0,0.08,0.22,0.08,0.22c-0.86-2.17-2.64-2.18-4.54-1.96
			c-2.48-2.17-4.96-4.35-7.44-6.52c0.32-5.66,8.56-11.2-0.24-17.03c-7.03-4.67-7.89,3.58-11.93,5.03
			c-3.73-5.65-4.16-12.01-4.03-18.5c4.94-5.98,12.83-6.19,19.01-9.75c5.31-0.26,8.46,4.48,13.14,5.67c1.5,1.46,3,2.91,4.49,4.36
			c4.81,5.19,9.63,10.39,14.44,15.59C209.59,55.55,215.59,59.33,216.59,66.01z"/>
		<path class="st3" d="M241.88,123.83c0.79,6.93,1.58,13.86,2.38,20.79c-5.67,4.85,1.13,11.58-2.53,16.74
			c-2.24-0.43-4.47-0.87-6.71-1.3c-1.58-4.66-4.01-4.74-7.09-1.31c-11.49-2.02-13.21-10.64-12.14-19.78
			c1.71-14.63,8.49-27.42,16.84-39.38C238.22,106.7,237.78,116.13,241.88,123.83z"/>
		<path class="st5" d="M175.08,24.08c-6.18,3.56-14.07,3.77-19.01,9.75c-7.72-1.75-15.36-4.08-23.18-5.09
			c-8.92-1.15-10.3-6.16-8.76-13.55c0.73-0.2,1.57-0.24,2.19-0.63c25.32-15.59,25.32-15.59,48.22,4.06
			C174.71,20.44,174.89,22.26,175.08,24.08z"/>
		<path class="st2" d="M160.88,262.43c10.77-3.06,21.55-6.12,32.32-9.18c1.21,10.91-3.47,20.46-7.04,30.26
			c-7.61,0.07-15.22,0.14-22.83,0.21C162.55,276.61,159.8,269.74,160.88,262.43z"/>
		<path class="st2" d="M102.96,251.14c11.13,5.2,22.98,8.18,34.79,11.32c-3.08,6.75-5.31,13.69-4.76,21.25
			c-7.63,0.01-15.27,0.02-22.91,0.03C109.91,272.39,101.05,262.94,102.96,251.14z"/>
		<path class="st2" d="M54.12,121.48c2.11,8.71-3.51,16.78-2.14,25.43c-2.69,7.53-1,15.47-2.14,23.14
			c-0.87,0.93-1.75,1.85-2.62,2.78c-5.33-1.75-10.66-3.51-15.98-5.26C33.01,149.31,37.97,132.62,54.12,121.48z"/>
		<path class="st6" d="M207.15,49.7c-4.81-5.2-9.63-10.39-14.44-15.59c10.08-4.95,18.1-13.99,31.32-12.5
			c9.11,1.02,8.89,3.65,5.95,10.77C225.61,42.95,216.34,46.05,207.15,49.7z"/>
		<path class="st6" d="M100.64,31.5c0.33,7.27-3.88,11.63-10.16,13.33c-7.59,2.06-14.46-0.17-19.02-7
			c-2.84-4.24-9.46-8.85-6.46-13.34c3.49-5.22,11.02-2.77,16.85-1.32c3.28,0.81,6.43,2.2,9.63,3.33
			C94.54,28.17,97.59,29.83,100.64,31.5z"/>
		<path class="st7" d="M175.08,24.08c-0.18-1.82-0.36-3.64-0.54-5.46c4.97-4.02,9.9-8.09,14.94-12.02c1.73-1.35,3.65-3.19,6.06-1.92
			c2.99,1.58,2.42,4.68,1.73,7.07c-1.88,6.52-4.11,12.96-9.04,18C183.53,28.56,180.38,23.82,175.08,24.08z"/>
		<path class="st7" d="M117.36,14.96c3.06,10.01,0.84,12.67-11.49,13.8c-1.09-2.27-2.18-4.54-3.28-6.81
			c-0.51-1.03-1.03-2.06-1.54-3.1c0.19-0.59,0.05-1.08-0.42-1.49c-0.57-1.21-1.13-2.41-1.7-3.62c0.61-4.82-1.86-12.89,8.18-7.71
			c0.94,0.65,1.87,1.31,2.81,1.96c0,0,0.19,0.15,0.19,0.15c0.72,0.62,1.45,1.25,2.17,1.87C113.97,11.66,115.66,13.31,117.36,14.96z"
			/>
		<path class="st8" d="M163.32,283.71c7.61-0.07,15.22-0.14,22.83-0.21c2.13,16.35-10.75,7.89-16.77,9.48
			C161.42,295.09,162.89,288.5,163.32,283.71z"/>
		<path class="st8" d="M110.07,283.74c7.64-0.01,15.27-0.02,22.91-0.03c0.21,4.26,2.47,11.03-5.14,9.22
			C121.59,291.45,108.8,300.14,110.07,283.74z"/>
		<path class="st9" d="M249.61,176.7c1.73-8.79,11.07-4.88,15.45-9.25c4.26,4.66,8.56,9.64-2.93,8.42
			C257.78,175.42,254.2,184.26,249.61,176.7z"/>
		<path class="st8" d="M31.24,167.57c5.33,1.75,10.66,3.51,15.98,5.26c-2.91,15.45-12.3-2.49-17.08,3.32
			C26.28,172.75,27.73,170.03,31.24,167.57z"/>
		<path class="st10" d="M49.84,170.06c1.14-7.67-0.56-15.61,2.14-23.14c5.11,9.71,0.92,20.15,2.39,30.14
			c-0.79,0.19-1.58,0.38-2.37,0.57c-0.54-0.67-1.08-1.35-1.61-2.02C50.2,173.76,50.02,171.91,49.84,170.06z"/>
		<path class="st1" d="M50.38,175.61c0.54,0.67,1.08,1.35,1.61,2.02C49.36,178.64,50.26,176.81,50.38,175.61z"/>
		<path class="st1" d="M101.05,18.85c0.52,1.03,1.03,2.06,1.54,3.1C102.07,20.92,101.56,19.89,101.05,18.85z"/>
		<path class="st1" d="M98.93,13.75c0.57,1.21,1.13,2.41,1.7,3.62C100.06,16.16,99.49,14.96,98.93,13.75z"/>
		<path class="st1" d="M112.27,10.02c-0.72-0.62-1.45-1.25-2.17-1.87C110.83,8.77,111.55,9.39,112.27,10.02z"/>
		<path class="st1" d="M109.92,8c-0.94-0.65-1.87-1.31-2.81-1.96C108.05,6.69,108.98,7.35,109.92,8z"/>
		<path class="st11" d="M165.51,123.83c0,2.3,0,4.61-0.01,6.91c-10.8-3.99-21.61-2.07-32.42-0.08c1.45-2.26,1.46-4.52-0.02-6.77
			C143.88,123.87,154.7,123.85,165.51,123.83z"/>
		<path class="st0" d="M165.51,123.83c-10.81,0.02-21.63,0.05-32.44,0.07c-19.45-3.74-29.52-15.35-27.81-31.79
			c0.34-3.31,1.26-5.96,4.24-7.64c27.04-23.58,54.75-21.38,76.94-0.04c0,0-0.06-0.03-0.06-0.04c0.84,0.8,1.68,1.6,2.53,2.4
			C195.77,107.69,185.93,117.56,165.51,123.83z M170.07,98.63c-0.5-4.31-0.5-9.7-6.28-9.1c-5.26,0.55-5.22,5.83-5.19,10.1
			c0.03,4.29,0.19,9.9,5.52,9.68C169.92,109.08,169.57,103.03,170.07,98.63z M126.23,99.95c0.84,3.59,0.51,9.24,5.73,9.41
			c5.29,0.17,5.85-5.1,5.76-9.43c-0.09-4.49,0.38-10.55-5.83-10.4C126.87,89.65,127.06,95.44,126.23,99.95z"/>
		<path class="st12" d="M186.44,84.43c-22.19-21.35-49.9-23.54-76.94,0.04c1.49-11.62,11.91-15.88,18.93-22.95
			c2.18-1.71,4.36-3.42,6.54-5.13c9,2.16,18.44-0.67,27.36,2.43c3.31,1.84,6.63,3.69,9.94,5.53c2.48,2.17,4.96,4.35,7.44,6.52
			c1.01,1.82,2.67,2.13,4.54,1.96c0,0-0.08-0.22-0.08-0.22C184.92,76.54,185.68,80.49,186.44,84.43z"/>
		<path class="st13" d="M172.27,64.33c-3.31-1.84-6.63-3.69-9.94-5.53c-0.74-2.16-1.49-4.31-2.23-6.47c4.04-1.45,4.9-9.7,11.93-5.03
			C180.83,53.14,172.59,58.68,172.27,64.33z"/>
		<path class="st13" d="M134.97,56.38c-2.18,1.71-4.36,3.42-6.54,5.13c-4.5-0.91-8.34-2.42-5.72-8.16c1.11-2.42,0.18-6.64,4.88-6.34
			C133.5,47.4,135.19,51.15,134.97,56.38z"/>
		<path class="st10" d="M241.72,161.35c3.66-5.15-3.14-11.89,2.53-16.74c0.65,5.2,1.71,10.4,1.8,15.61
			C246.11,163.71,243.82,163.37,241.72,161.35z"/>
		<path class="st10" d="M227.93,158.74c3.08-3.43,5.5-3.35,7.09,1.31C232.47,160.6,230.08,160.3,227.93,158.74z"/>
		<path class="st12" d="M188.9,86.79c-0.84-0.8-1.68-1.6-2.53-2.4C187.22,85.19,188.06,85.99,188.9,86.79z"/>
		<path class="st2" d="M184.25,72.82c-1.87,0.17-3.53-0.14-4.54-1.96C181.6,70.63,183.39,70.65,184.25,72.82z"/>
		<path class="st14" d="M170.07,98.63c-0.5,4.41-0.15,10.45-5.95,10.69c-5.33,0.21-5.49-5.39-5.52-9.68
			c-0.03-4.28-0.07-9.55,5.19-10.1C169.57,88.93,169.57,94.32,170.07,98.63z"/>
		<path class="st14" d="M126.23,99.95c0.83-4.51,0.63-10.3,5.66-10.42c6.2-0.15,5.73,5.91,5.83,10.4c0.09,4.33-0.47,9.6-5.76,9.43
			C126.74,109.19,127.07,103.54,126.23,99.95z"/>
	</g>
</g>
</svg>
