<?xml version="1.0" encoding="utf-8"?>
<!-- Generator: Adobe Illustrator 26.5.0, SVG Export Plug-In . SVG Version: 6.00 Build 0)  -->
<svg version="1.1" id="Layer_1" xmlns="http://www.w3.org/2000/svg" xmlns:xlink="http://www.w3.org/1999/xlink" x="0px" y="0px"
	 viewBox="0 0 300 300" style="enable-background:new 0 0 300 300;" xml:space="preserve">
<style type="text/css">
	.st0{fill:#FDE579;}
	.st1{fill:#FBD119;}
	.st2{fill:#F8BF25;}
	.st3{fill:#F7C028;}
	.st4{fill:#F4C333;}
	.st5{fill:#F2A52F;}
	.st6{fill:#F0A430;}
	.st7{fill:#F7A21D;}
	.st8{fill:#E79524;}
	.st9{fill:#665626;}
	.st10{fill:#635429;}
</style>
<g id="_x31_RS29m_00000119812040178430659510000011704013476930130062_">
	<g>
		<path class="st0" d="M163.56,240.3c-9.55-3.34-19.44-2.48-29.27-2.34c-2.52-3.47-6.21-2.75-9.71-2.69
			c-19.77-6.97-36.06-18.26-46.25-37.16c6.89,2.42,4.65-3.14,4.49-5.7c-0.68-10.94,0.97-21.41,5.03-31.55
			c20.52-51.11,72.05-66.58,106.4-26.03c21.17,25,30.96,60.71,6.44,86.42c-0.72,0.65-1.45,1.3-2.17,1.96
			c-1.52,0.92-3.04,1.83-4.56,2.75c-3.62,2.43-10.57,1.52-9.1,9.07c-3.72,1.07-7.43,2.13-11.15,3.19
			C169.11,232.99,166.2,235.99,163.56,240.3z"/>
		<path class="st1" d="M200.7,221.25c24.53-25.71,14.73-61.42-6.44-86.42c-34.35-40.56-85.87-25.08-106.4,26.03
			c-4.07,10.14-5.71,20.61-5.03,31.55c0.16,2.55,2.4,8.12-4.49,5.7c-4.79-9.57-9.58-19.15-9.34-30.27
			c0.94-15.71-1.98-31.63,2.57-47.15c6.44-32.2,20.2-60.45,45.3-82.3c21.94-19.1,46.35-19.9,69.39-2.19
			c23.59,18.13,35.98,43.55,44.89,71.04c1.78,5.48,3.17,11.09,4.73,16.63c-0.23,4.12,0.28,8.13,0.86,12.25
			c1.49,10.58,2.56,21.28,1.29,32.02c-2.92,7.65-3.1,16.22-7.78,23.28c-2.99,1.68-3.25,4.62-4.14,7.59
			C223.26,208.58,208.97,220.73,200.7,221.25z M177.85,91.85c1.96,0,3.59-0.59,4.55-2.44c7.54-4.1,3.89-7.94,0.3-12.7
			c-4.13-5.47-13.24-4.78-15.19-11.35c-2.57-8.64-8.48-8.27-15.14-8.51c-9.44-0.34-18.44-0.57-23.11,10.13
			c-1.47,3.38-5.8,3.34-8.67,5.1c-11.32,6.92-11.45,14.37-0.57,21.84c20.48,10.4,45.3,9.5,57.89-2.11L177.85,91.85z M137.75,47.85
			c-0.34-3.84-2.61-6.46-6.44-6.58c-3.92-0.13-6.41,2.61-6.43,6.5c-0.02,3.41,2.36,5.96,5.65,6.22
			C134.36,54.28,136.92,51.96,137.75,47.85z M173.17,48.01c-0.22-4.07-2.6-6.62-6.37-6.73c-3.9-0.11-6.4,2.8-6.31,6.57
			c0.08,3.15,2.18,5.94,5.68,6.18C170.14,54.3,172.46,51.94,173.17,48.01z"/>
		<path class="st2" d="M71.57,120.69c-4.55,15.52-1.63,31.44-2.57,47.15c-8.91-0.35-17.71-1.24-26.67,1.13
			c-10.34,2.73-20.61-4-24.22-15.01c-0.95-2.91-5.17-3.8-4.15-8.1c11.95-3.38,23.32-9.08,33.64-16.04
			C55.2,124.7,65.04,127.32,71.57,120.69z"/>
		<path class="st3" d="M238.02,168.16c1.27-10.74,0.2-21.44-1.29-32.02c-0.58-4.12-1.08-8.13-0.86-12.25
			c17.26,5.22,31.04,18.18,51.08,22.08c-7.83,3.95-5.9,11.71-11.89,16.74c-8.9,7.49-17.1,8.4-26.94,4.78
			C244.52,166.15,241.41,168.44,238.02,168.16z"/>
		<path class="st4" d="M200.7,221.25c8.28-0.52,22.56-12.67,25.4-22.22c0.89-2.97,1.15-5.92,4.14-7.59
			c-5.05,16.66,9.11,5.07,13.03,8.99c-0.59,6.59-7.4,7.84-10.76,11.68c-1.86,4.74,13.22,1.81,4.03,7.89
			c-12.73,8.42-25.81,17.83-42.61,16.34c-3.03-0.27-6.04-0.87-9.05-1.32c-1.47-7.54,5.48-6.64,9.1-9.07
			c4.12,3.41,4.25,0.18,4.56-2.75C199.25,222.56,199.97,221.9,200.7,221.25z"/>
		<path class="st5" d="M124.59,235.27c3.5-0.06,7.18-0.78,9.71,2.69c-1.81,9.33,2.07,17.22,6.23,25.08
			c1.58,2.98,3.96,6.17,1.14,9.52c-2.6,3.09-5.49,0.81-8.39,0c-2.09-0.58-4.86-1-6.6-0.1c-5.94,3.08-10.96,5.15-12.02-4.43
			c-0.04-0.37-0.11-0.84-0.35-1.05c-3.05-2.73-12.27,0.71-9.05-7.9c1.75-4.66,7.81-6.06,12.4-7.58
			C126.55,248.55,124.1,241.43,124.59,235.27z"/>
		<path class="st6" d="M163.56,240.3c2.64-4.31,5.55-7.31,10.15-2.09c-2.57,9.92,4.79,12.32,11.46,15.62
			c11.14,5.51,7.59,3.85,2.1,13.03c-8.23,13.76-18.92,2.06-27.74,6.52c-4.63,2.34-4.6-5.12-2.7-9.1
			C160.46,256.65,165.15,249.37,163.56,240.3z"/>
		<path class="st1" d="M198.53,223.21c-0.31,2.92-0.43,6.15-4.56,2.75C195.49,225.04,197.01,224.12,198.53,223.21z"/>
		<path class="st7" d="M120.02,93.93c-10.88-7.47-10.74-14.92,0.57-21.84c2.87-1.76,7.2-1.72,8.67-5.1
			c4.67-10.7,13.67-10.47,23.11-10.13c6.66,0.24,12.56-0.13,15.14,8.51c1.96,6.57,11.06,5.88,15.19,11.35
			c3.59,4.75,7.24,8.6-0.3,12.7c-1.91,0.08-3.66,0.47-4.55,2.44c0,0,0.06-0.03,0.06-0.03c-13.14,1.46-26.28,2.58-39.55,2.34
			C132.26,94.06,126.16,88.26,120.02,93.93z"/>
		<path class="st8" d="M120.02,93.93c6.14-5.68,12.23,0.13,18.33,0.24c13.27,0.23,26.41-0.88,39.55-2.34
			C165.32,103.43,140.5,104.34,120.02,93.93z"/>
		<path class="st9" d="M137.75,47.85c-0.83,4.1-3.39,6.43-7.22,6.13c-3.3-0.26-5.68-2.81-5.65-6.22c0.03-3.89,2.51-6.63,6.43-6.5
			C135.14,41.39,137.41,44.02,137.75,47.85z"/>
		<path class="st10" d="M173.17,48.01c-0.71,3.94-3.03,6.29-7,6.02c-3.5-0.24-5.6-3.03-5.68-6.18c-0.09-3.77,2.41-6.68,6.31-6.57
			C170.56,41.39,172.95,43.93,173.17,48.01z"/>
		<path class="st8" d="M177.85,91.85c0.89-1.98,2.64-2.37,4.55-2.44C181.44,91.26,179.81,91.86,177.85,91.85z"/>
	</g>
</g>
</svg>
