<?xml version="1.0" encoding="utf-8"?>
<!-- Generator: Adobe Illustrator 26.5.0, SVG Export Plug-In . SVG Version: 6.00 Build 0)  -->
<svg version="1.1" id="Layer_1" xmlns="http://www.w3.org/2000/svg" xmlns:xlink="http://www.w3.org/1999/xlink" x="0px" y="0px"
	 viewBox="0 0 300 300" style="enable-background:new 0 0 300 300;" xml:space="preserve">
<style type="text/css">
	.st0{fill:#F1A3B7;}
	.st1{fill:#F3C4D0;}
	.st2{fill:#F1C4D0;}
	.st3{fill:#EEA5B8;}
	.st4{fill:#EDA6B9;}
	.st5{fill:#A25F6A;}
	.st6{fill:#A0646E;}
	.st7{fill:#9E6674;}
	.st8{fill:#E6AFBD;}
	.st9{fill:#F4C0CE;}
	.st10{fill:#D47792;}
	.st11{fill:#D27692;}
	.st12{fill:#D17C93;}
	.st13{fill:#64363F;}
	.st14{fill:#CE8198;}
</style>
<g id="_x31_RS29m_00000154393288974666425070000012369472979477151360_">
	<g>
		<path class="st0" d="M87.99,240c-20.38-12.4-29.44-32.14-34.52-54.18c-1.69-7.34-1.79-15.05-2.62-22.59
			c-0.71-17.53,2.45-34.56,6.61-51.46c4.13-12.43,8.03-25.17,15.3-36.01c8.03-11.98,8.49-24,4.93-37.1
			c-0.89-3.29-1.17-6.82-1.27-10.25c-0.66-21,5.4-25.44,24.49-15.69c11.42,5.84,21.42,8.09,33.53,2.5
			c10.17-4.7,21.55-3.49,31.47,1.02c8.67,3.95,15.53,3.05,23.96-0.63c29.6-12.95,33.53-11.03,29.17,20.76
			c-2.41,17.59-0.06,31.59,8.68,46.3c5.21,8.77,7.54,19.25,11.17,28.97c5.09,17.69,6.6,35.82,6.69,54.13
			c0.01,24.93-8.44,46.46-25.87,64.38c-1.93-0.02-3.63-0.5-4.66-2.33c4.71-14.13,6.17-27.9,0.73-42.64
			c-2.82-7.65-6.26-14.89-10.29-21.62c-12.38-20.66-30.15-34.91-54.74-37.28c-33.52-3.22-70.32,38.88-72.26,73.92
			C77.69,214.7,83.67,227.02,87.99,240z M129.58,105.24c0.13,0.27,0.21,0.59,0.41,0.8c0.12,0.13,0.41,0.1,0.62,0.15
			C130.27,105.87,129.93,105.55,129.58,105.24c-0.1-0.3-0.16-0.65-0.34-0.88c-0.11-0.15-0.43-0.13-0.66-0.19
			C128.92,104.53,129.25,104.88,129.58,105.24z M136.52,109.87c-0.34-0.34-0.68-0.68-1.02-1.02c0.06,0.22,0.04,0.51,0.18,0.63
			c0.23,0.19,0.56,0.26,0.85,0.38c5.86,4.54,12.01,1.52,18.09,0.02C148.59,109.87,142.55,109.87,136.52,109.87z M173.44,72.8
			l0.11,0.15c0.63-4.75-1.84-7.85-5.33-10.62c-15.46-12.26-30.64-10.21-43.25,5.95l0.05-0.06c-2.17,0.97-2.43,2.86-2.39,4.9
			c-5.59,16.5-0.84,24.33,17.04,27.19c4.86,0.78,9.95,0.47,14.92,0.26c16.82-0.73,23.98-9.28,21.27-25.15
			C175.05,74.55,174.24,73.68,173.44,72.8z M214.94,29.05c-0.57-4.11-1.21-10.01-6.19-10.71c-7.33-1.04-15.09,1.93-19.65,7.41
			c-3.17,3.8,3.42,6.76,6.12,9.39c4.88,4.75,9.19,14.12,14.93,12.95c5.95-1.21,1.1-11.77,4.63-17.36
			C214.96,30.44,214.86,29.98,214.94,29.05z M85.45,49.09c6.25-5.59,12.33-10.79,18.1-16.32c1.98-1.9,6.43-4.1,3.82-7.17
			c-4.05-4.76-10.54-6.07-16.47-7.41c-3.07-0.7-6.89,1.18-7.05,4.44C83.41,31.81,81.29,41.34,85.45,49.09z M120.69,58.84
			c4.47-0.74,7.3-2.89,7.14-7.57c-0.13-4.04-2.44-6.49-6.46-6.62c-4.39-0.15-7.62,2.12-7.67,6.63
			C113.65,55.57,116.52,58.12,120.69,58.84z M176.35,58.83c4.22-1.1,7.05-3.29,6.6-7.99c-0.38-4.03-2.88-6.29-6.82-6.21
			c-4.37,0.09-7.42,2.46-7.17,7.09C169.19,56.06,172.01,58.48,176.35,58.83z"/>
		<path class="st1" d="M87.99,240c-4.32-12.98-10.3-25.3-9.5-39.8c1.94-35.04,38.74-77.15,72.26-73.92
			c24.59,2.37,42.36,16.62,54.74,37.28c4.03,6.73,7.47,13.97,10.29,21.62c5.44,14.74,3.98,28.51-0.73,42.64
			c-2.92,4.75-8.66,7.69-9.05,14.07c0,0,0.04-0.08,0.04-0.08c-2.17-0.02-4.04,0.46-4.68,2.9c-2.26,2.15-4.51,4.3-6.77,6.45
			c-11.68-0.35-22.02,5.72-33.38,6.89c-8.12-0.03-16.24-0.06-24.37-0.09c-12.76,0.61-23.71-5.66-35.35-9.29
			C95.68,247.82,92.49,242.88,87.99,240z"/>
		<path class="st2" d="M245.58,165.76c-0.09-18.31-1.61-36.44-6.69-54.13c13.47,6.18,18.01,19.25,23.89,31.2
			c3.55,7.22,6.21,14.81,7.63,22.79c-5.9,1.51-11.81,3.01-17.71,4.52C250.02,169.19,249.32,165,245.58,165.76z"/>
		<path class="st2" d="M57.46,111.76c-4.17,16.9-7.32,33.93-6.61,51.46c-2.36,2.31-4.72,4.62-7.07,6.93
			c-5.36-1.7-10.72-3.39-16.08-5.09C32.29,144.31,37.8,124.08,57.46,111.76z"/>
		<path class="st3" d="M101.48,248.68c11.64,3.63,22.59,9.89,35.35,9.29c-0.18,7.9-1.07,15.71-3.12,23.36
			c-8.04,0.11-16.08,0.21-24.13,0.32C106.88,270.65,104.18,259.67,101.48,248.68z"/>
		<path class="st4" d="M161.2,258.05c11.36-1.17,21.71-7.24,33.38-6.89c-1.29,10.38-3.86,20.45-7.52,30.24
			c-7.95,0.13-15.91,0.25-23.86,0.38C162.54,273.87,161.87,265.96,161.2,258.05z"/>
		<path class="st5" d="M163.2,281.78c7.95-0.13,15.91-0.25,23.86-0.38c0.39,15-11.3,8.01-17.89,9.35
			C161.95,292.21,163.05,286.25,163.2,281.78z"/>
		<path class="st6" d="M109.58,281.64c8.04-0.11,16.09-0.21,24.13-0.32c0.11,4.37,1.88,10.65-5.58,9.4
			C121.37,289.59,109.85,296.46,109.58,281.64z"/>
		<path class="st7" d="M252.7,170.14c5.9-1.51,11.81-3.01,17.71-4.52c-0.22,2.92,4.23,9.73-2.35,7.46
			C262.81,171.28,254,186.92,252.7,170.14z"/>
		<path class="st6" d="M27.7,165.05c5.36,1.7,10.72,3.39,16.08,5.09c-2.01,16.65-11.56-2.17-16.92,3.12
			C26.04,174.08,25.26,167.89,27.7,165.05z"/>
		<path class="st8" d="M206,241.88c0.39-6.38,6.13-9.32,9.05-14.07c1.03,1.83,2.73,2.31,4.66,2.33
			C216.3,235.41,212.49,240.22,206,241.88z"/>
		<path class="st8" d="M201.36,244.71c0.64-2.45,2.51-2.92,4.68-2.9C204.48,242.77,202.92,243.74,201.36,244.71z"/>
		<path class="st9" d="M175.85,75.43c2.71,15.87-4.44,24.42-21.27,25.15c-4.97,0.22-10.05,0.52-14.92-0.26
			c-17.88-2.87-22.63-10.69-17.04-27.2c1.91-1.09,2.89-2.63,2.39-4.9c0,0-0.05,0.06-0.05,0.06c1.48-0.13,3.27,0.23,4.39-0.47
			c16.15-10.13,30.71-7.38,44.19,5.13c0,0-0.11-0.15-0.11-0.15C174.24,73.68,175.05,74.55,175.85,75.43z M159.71,90.58
			c3.34-1.93,4.39-5.14,3.83-8.56c-0.39-2.38-1.14-6.1-4.47-5.48c-4.28,0.79-4.01,4.93-3.78,8.28
			C155.46,87.46,156.29,90.02,159.71,90.58z M137.74,77.7c-3.6,0.63-3.63,3.47-3.56,6.14c0.06,2.53-0.61,6.24,3.06,6.3
			c3.14,0.05,3.81-3.24,3.88-6.03C141.19,81.4,141.21,78.61,137.74,77.7z"/>
		<path class="st10" d="M214.94,29.05c-0.08,0.93,0.01,1.39-0.17,1.68c-3.53,5.58,1.32,16.14-4.63,17.36
			c-5.74,1.17-10.04-8.2-14.93-12.95c-2.7-2.63-9.29-5.58-6.12-9.39c4.56-5.48,12.32-8.44,19.65-7.41
			C213.73,19.04,214.37,24.94,214.94,29.05z"/>
		<path class="st11" d="M85.45,49.09c-4.16-7.76-2.04-17.28-1.59-26.46c0.16-3.26,3.98-5.13,7.05-4.44
			c5.93,1.34,12.42,2.65,16.47,7.41c2.61,3.07-1.85,5.27-3.82,7.17C97.78,38.31,91.7,43.51,85.45,49.09z"/>
		<path class="st12" d="M173.55,72.95c-13.47-12.51-28.04-15.27-44.19-5.13c-1.12,0.7-2.91,0.34-4.39,0.47
			c12.62-16.16,27.79-18.22,43.25-5.95C171.71,65.1,174.18,68.2,173.55,72.95z"/>
		<path class="st13" d="M120.69,58.84c-4.16-0.71-7.04-3.27-6.99-7.56c0.05-4.51,3.27-6.78,7.67-6.63c4.03,0.13,6.33,2.58,6.46,6.62
			C127.98,55.94,125.15,58.1,120.69,58.84z"/>
		<path class="st13" d="M176.35,58.83c-4.35-0.36-7.16-2.77-7.39-7.11c-0.25-4.63,2.8-7,7.17-7.09c3.95-0.08,6.44,2.18,6.82,6.21
			C183.4,55.54,180.57,57.73,176.35,58.83z"/>
		<path class="st14" d="M136.52,109.87c6.04,0,12.07,0,18.11,0c-6.08,1.5-12.23,4.53-18.09-0.02L136.52,109.87z"/>
		<path class="st12" d="M125.02,68.22c0.5,2.27-0.49,3.81-2.39,4.9C122.59,71.08,122.86,69.19,125.02,68.22z"/>
		<path class="st12" d="M175.85,75.43c-0.81-0.87-1.61-1.75-2.42-2.62C174.24,73.68,175.05,74.55,175.85,75.43z"/>
		<path class="st14" d="M129.58,105.24c-0.33-0.36-0.67-0.72-1-1.07c0.23,0.06,0.54,0.04,0.66,0.19
			C129.43,104.6,129.48,104.94,129.58,105.24L129.58,105.24z"/>
		<path class="st14" d="M129.59,105.24c0.34,0.32,0.68,0.63,1.03,0.95c-0.21-0.04-0.5-0.02-0.62-0.15
			C129.8,105.83,129.71,105.51,129.59,105.24C129.58,105.24,129.59,105.24,129.59,105.24z"/>
		<path class="st14" d="M136.53,109.86c-0.29-0.12-0.62-0.19-0.85-0.38c-0.14-0.11-0.13-0.41-0.18-0.63
			c0.34,0.34,0.68,0.68,1.02,1.02C136.52,109.87,136.53,109.86,136.53,109.86z"/>
		<path class="st14" d="M159.71,90.58c-3.42-0.55-4.25-3.11-4.42-5.76c-0.23-3.36-0.5-7.49,3.78-8.28c3.33-0.62,4.08,3.09,4.47,5.48
			C164.1,85.43,163.04,88.65,159.71,90.58z"/>
		<path class="st14" d="M137.75,77.7c3.45,0.91,3.43,3.69,3.36,6.4c-0.07,2.79-0.74,6.08-3.88,6.03c-3.67-0.06-3-3.76-3.06-6.3
			C134.11,81.17,134.15,78.33,137.75,77.7z"/>
	</g>
</g>
</svg>
