<?xml version="1.0" encoding="utf-8"?>
<!-- Generator: Adobe Illustrator 26.5.0, SVG Export Plug-In . SVG Version: 6.00 Build 0)  -->
<svg version="1.1" id="Layer_1" xmlns="http://www.w3.org/2000/svg" xmlns:xlink="http://www.w3.org/1999/xlink" x="0px" y="0px"
	 viewBox="0 0 300 300" style="enable-background:new 0 0 300 300;" xml:space="preserve">
<style type="text/css">
	.st0{fill:#B0692C;}
	.st1{fill:#D79957;}
	.st2{fill:#C73228;}
	.st3{fill:#D59B5E;}
	.st4{fill:#D49B5D;}
	.st5{fill:#C6382A;}
	.st6{fill:#ECAA4E;}
	.st7{fill:#EDA743;}
	.st8{fill:#EDBF78;}
	.st9{fill:#F2A43C;}
	.st10{fill:#5D2D29;}
	.st11{fill:#562B25;}
</style>
<g id="_x31_11Sl0_00000039821141971271853160000005925356166836524419_">
	<g>
		<path class="st0" d="M83.41,223.58C69.42,210.98,66.65,193.52,63,176.44c-1.88-18.48,3.49-36.02,6.94-53.82
			c0,0,0.34-0.42,0.34-0.42c0.45-0.89,0.91-1.77,1.36-2.66c10.95-31.19,25.52-59.59,57.67-74.34c4.12,4.38,6.83,13.08,14.98,7.91
			c14.56-9.24,26.72-3.79,38.88,4.49c19.11,17.89,30.44,40.44,38.81,64.77c4.65,17.95,8.81,35.96,7.01,54.74
			c-2.04,13.02-5.89,25.49-11.5,37.42c-3.07,1.38-5.03,4.75-8.78,4.9c4.96-19.97,2.03-38.69-8.63-56.29
			c-26.58-43.91-72.87-50.78-105.29-4.19C80.89,178.93,78.41,200.49,83.41,223.58z M147.46,86.94c-8.97-0.35-16.91,2.07-21.32,10.23
			c-1.6,2.95,15.61,17.46,19.92,17.34c4.29-0.12,20.79-14.2,19.81-17.78C163.31,87.44,155.08,87.44,147.46,86.94z M169.84,73.78
			c-1.33-2.3-2.85-5.09-6.45-4.88c-4.13,0.24-6.04,2.91-5.69,6.92c0.34,3.94,3.18,4.8,6.54,4.54
			C167.87,80.06,169.45,77.75,169.84,73.78z M129.5,80.29c3.83-0.3,5.13-2.65,4.91-6.19c-0.23-3.66-2.14-5.69-5.87-5.23
			c-3.48,0.43-5.53,2.78-5.28,6.2C123.53,78.54,125.86,80.39,129.5,80.29z"/>
		<path class="st1" d="M83.41,223.58c-5-23.1-2.52-44.65,11.39-64.64c32.41-46.59,78.71-39.72,105.29,4.19
			c10.65,17.6,13.59,36.33,8.62,56.29c-5.11,12.33-17.11,17.63-26.31,25.77c-3.65,0.6-7.3,1.2-10.95,1.8
			c-4.84,0.83-9.68,1.66-14.52,2.49c-6.24,2.13-12.53,2.29-18.85,0.41c-5.5-0.88-11-1.76-16.51-2.64
			C105.17,245.3,94.51,234.09,83.41,223.58z"/>
		<path class="st2" d="M183.17,57.6c-12.16-8.28-24.32-13.73-38.88-4.49c-8.15,5.18-10.86-3.52-14.98-7.91
			c-1.22-3.62-2.8-7.16-3.59-10.87c-1.76-8.33,0.62-15.42,8.27-19.64c7.12-3.94,14.02-2.68,20.08,2.8c1.64,1.48,3.62,4.42,4.92,4.15
			c16.17-3.31,20.59,10.24,27.75,19.34C191.68,47.25,189.65,53.19,183.17,57.6z"/>
		<path class="st3" d="M228.99,177.1c1.79-18.78-2.37-36.79-7.01-54.74c14.02,2.95,27.76,7.03,38.99,16.19
			c5.75,4.7,16.48,10.14,3.63,19.1c3.08,16.66-15.13,14.6-21.3,23.54C240.17,185.73,233.9,178.7,228.99,177.1z"/>
		<path class="st4" d="M69.94,122.62c-3.45,17.79-8.82,35.34-6.94,53.82c-6.58,3.93-12.74,10.71-19.19-1.15
			c-1.76-3.24-11.38-0.75-12.79-5.69c-2.1-7.34-8.56-13.82-8.05-20.53c0.63-8.21,9.59-12.05,16.71-16
			C49.18,127.8,59.36,124.67,69.94,122.62z"/>
		<path class="st5" d="M182.4,245.2c9.21-8.15,21.21-13.44,26.31-25.77c3.76-0.15,5.72-3.51,8.78-4.9c2.82,1.17,5.72,2.19,8.45,3.54
			c5.71,2.83,15.12,4.79,14.03,11.5c-1.18,7.26-6.66,17.44-12.55,19.38c-7.31,2.41-12.72,9.52-19.96,9.11
			C197.78,257.51,189.86,251.29,182.4,245.2z"/>
		<path class="st6" d="M121.57,247.27c5.5,0.88,11.01,1.76,16.51,2.64c-8.45,1.49-7.39,7.84-6,13.31c1.2,4.74,4.22,9,6.07,13.61
			c1.25,3.11,3.02,7.07-1.32,9c-3.63,1.61-5.31-1.8-6.94-4.43c-0.76-1.24-1.66-2.39-3.01-4.32c-1.87,2.86-3.26,5.02-4.7,7.14
			c-1.31,1.93-2.8,4.14-5.43,3.37c-2.48-0.72-3.25-3.05-2.99-5.59c0.35-3.44,1.47-7.16-4.71-5.05c-1.86,0.63-5.93,1.92-6.66-1.94
			c-0.57-2.98,2.18-4.48,4.78-5.55C117.06,265.39,124.67,259.79,121.57,247.27z"/>
		<path class="st7" d="M159.5,267.03c-0.12-0.6,0.01-1.14,0.41-1.61c6.37-0.6,3.45-6.27,5.2-9.63c2.62,2.03,2.31,6.41,6.03,7.35
			c0,0,0.19,0.09,0.19,0.09c0.95,0.59,1.89,1.18,2.84,1.77c0,0-0.16-0.13-0.16-0.12c0.89,0.87,1.78,1.73,2.67,2.6
			c4.49,1.09,9.11,1.98,10.97,7.11c-7.39,0.79-14.97,1.41-11.12,12.33c-0.94,0.18-1.87,0.35-2.81,0.52
			c-0.43-1.69-1.49-2.67-3.24-2.88c-2.73-2.34-2.74-10.89-9.22-4.53c-2.2,2.16-3.65,5.76-6.93,3.47c-4-2.8-0.76-6,0.95-8.83
			c0.66-0.97,1.31-1.93,1.97-2.9c-0.08-0.63,0.06-1.21,0.42-1.74C158.27,269.02,158.88,268.02,159.5,267.03z"/>
		<path class="st6" d="M171.14,263.13c-3.72-0.94-3.41-5.32-6.03-7.35c-1.75,3.36,1.17,9.03-5.2,9.63
			c-0.02-5.49,3.37-11.62-2.98-15.92c4.84-0.83,9.68-1.66,14.52-2.49C169.91,252.35,170.31,257.74,171.14,263.13z"/>
		<path class="st8" d="M170.47,284.54c1.75,0.21,2.81,1.19,3.24,2.88C171.18,288.1,171.03,286.1,170.47,284.54z"/>
		<path class="st4" d="M71.64,119.54c-0.45,0.89-0.91,1.77-1.36,2.66C70.73,121.32,71.19,120.43,71.64,119.54z"/>
		<path class="st6" d="M174.17,264.98c-0.95-0.59-1.89-1.18-2.84-1.77C172.28,263.81,173.22,264.39,174.17,264.98z"/>
		<path class="st6" d="M176.67,267.46c-0.89-0.86-1.78-1.73-2.67-2.6C174.9,265.72,175.79,266.59,176.67,267.46z"/>
		<path class="st6" d="M159.5,267.03c-0.61,0.99-1.22,1.99-1.84,2.98C158.27,269.02,158.88,268.02,159.5,267.03z"/>
		<path class="st6" d="M157.24,271.75c-0.66,0.97-1.31,1.93-1.97,2.9C155.93,273.68,156.59,272.72,157.24,271.75z"/>
		<path class="st9" d="M147.46,86.94c7.62,0.51,15.85,0.5,18.41,9.8c0.99,3.58-15.52,17.66-19.81,17.78
			c-4.31,0.12-21.51-14.39-19.92-17.34C130.55,89.01,138.49,86.59,147.46,86.94z"/>
		<path class="st10" d="M169.84,73.78c-0.39,3.97-1.97,6.28-5.61,6.57c-3.36,0.27-6.2-0.6-6.54-4.54c-0.35-4.01,1.56-6.68,5.69-6.92
			C166.99,68.69,168.51,71.48,169.84,73.78z"/>
		<path class="st11" d="M129.49,80.28c-3.63,0.11-5.96-1.74-6.22-5.21c-0.26-3.42,1.79-5.78,5.28-6.2c3.72-0.45,5.63,1.57,5.87,5.23
			C134.64,77.64,133.34,79.99,129.49,80.28z"/>
	</g>
</g>
</svg>
